# xmcd CD database file
#
# Track frame offsets:
#	150
#	19260
#	41460
#	60804
#	76877
#	94361
#	108519
#	130761
#	154744
#	172405
#	196273
#	218542
#	235695
#	248891
#	267719
#	288999
#
# Disc length: 4046 seconds
#
# Revision: 0
# Processed by: cddbd v1.5.2PL0 Copyright (c) Steve Scherf et al.
# Submitted via: CDex 1.51
#
DISCID=db0fcc10
DTITLE=Flossie Malavialle and Michael Mulroy - "Enchanté" - What a wonderful World
DYEAR=2009
DGENRE=Jazz
TTITLE0=Lover man
TTITLE1=Killing me softly
TTITLE2=Something stupid
TTITLE3=Promise me
TTITLE4=Strangers in the night
TTITLE5=Girl from Ipanema
TTITLE6=Cry me a river
TTITLE7=Sailing
TTITLE8=Windmills of your mind
TTITLE9=I've got you under my skin
TTITLE10=Desafinado
TTITLE11=Unforgettable
TTITLE12=Fly me to the moon
TTITLE13=Misty
TTITLE14=I'm not in love
TTITLE15=What a wonderful world
EXTD=YEAR: 2009
EXTT0=
EXTT1=
EXTT2=
EXTT3=
EXTT4=
EXTT5=
EXTT6=
EXTT7=
EXTT8=
EXTT9=
EXTT10=
EXTT11=
EXTT12=
EXTT13=
EXTT14=
EXTT15=
PLAYORDER=
